<?xml version="1.0" encoding="utf-8"?>
<!-- Generator: Adobe Illustrator 24.3.0, SVG Export Plug-In . SVG Version: 6.00 Build 0)  -->
<svg version="1.1" id="Livello_1" xmlns:rdf="http://www.w3.org/1999/02/22-rdf-syntax-ns#" xmlns:svg="http://www.w3.org/2000/svg"
	 xmlns="http://www.w3.org/2000/svg" xmlns:xlink="http://www.w3.org/1999/xlink" x="0px" y="0px" viewBox="0 0 300 120.3"
	 style="enable-background:new 0 0 300 120.3;" xml:space="preserve">
<style type="text/css">
	.st0{fill:#E43239;}
	.st1{fill:#2A62AB;}
	.st2{fill:#F4AE04;}
	.st3{fill:#84B726;}
</style>
<path id="e" class="st0" d="M129.4,39.4c-13.8,0-25.3,5.9-25.3,23.5c0,14,7.7,22.8,25.7,22.8c21.1,0,22.5-13.9,22.5-13.9H142
	c0,0-2.2,7.5-12.9,7.5c-8.7,0-14.9-5.9-14.9-14.1h39.1V60C153.3,51.9,148.2,39.3,129.4,39.4L129.4,39.4z M129.1,46
	c8.3,0,13.9,5.1,13.9,12.7h-28.5C114.4,50.6,121.8,46,129.1,46z"/>
<path id="b" class="st1" d="M153.3,22.2v54.6c0,3.1-0.2,7.5-0.2,7.5h9.8c0,0,0.4-3.1,0.4-6c0,0,4.8,7.5,17.9,7.5
	c13.8,0,23.2-9.6,23.2-23.3c0-12.8-8.6-23.1-23.2-23.1c-13.6,0-17.9,7.4-17.9,7.4V22.2H153.3z M178.7,46.2c9.4,0,15.3,7,15.3,16.3
	c0,10-6.9,16.6-15.3,16.6c-10,0-15.4-7.8-15.4-16.5C163.3,54.6,168.2,46.2,178.7,46.2z"/>
<path id="a" class="st2" d="M228.6,39.4c-20.8,0-22.1,11.4-22.1,13.2h10.3c0,0,0.5-6.6,11.1-6.6c6.8,0,12.1,3.1,12.1,9.1v2.1h-12.1
	c-16.1,0-24.6,4.7-24.6,14.3c0,9.4,7.9,14.5,18.5,14.5c14.5,0,19.2-8,19.2-8c0,3.2,0.2,6.3,0.2,6.3h9.2c0,0-0.4-3.9-0.4-6.4V56.4
	C250,42.3,238.6,39.4,228.6,39.4L228.6,39.4z M240,63.6v2.9c0,3.7-2.3,13-15.8,13c-7.4,0-10.6-3.7-10.6-8
	C213.6,63.7,224.3,63.6,240,63.6L240,63.6z"/>
<path id="y" class="st3" d="M244.4,41.1h11.6l16.7,33.5l16.7-33.5H300l-30.4,59.6h-11.1l8.8-16.6L244.4,41.1z"/>
<path id="y_1_" class="st2" d="M54.2,41.1h11.6l16.7,33.5l16.7-33.5h10.5l-30.4,59.6H68.3l8.8-16.6L54.2,41.1z"/>
<polygon class="st1" points="42,21.3 28.2,66.6 14.4,21.3 1.8,21.3 1.8,84.8 12,84.8 12,46.4 23.6,84.8 32.7,84.8 44.4,46.4 
	44.4,84.8 54.5,84.8 54.5,21.3 "/>
</svg>
